<svg xmlns="http://www.w3.org/2000/svg" xml:space="preserve" viewBox="0 0 183.55 170.35">
  <path d="M440 442.76c-.99-.2-2.42-.66-3.2-1.01-1.24-.58-1.89-.66-6.12-.82-12.88-.47-17.34-1.25-19.26-3.38-.97-1.08-.97-1.08-6.15-1.41-2.85-.19-6.36-.48-7.81-.65-3.48-.42-3.44-.42-7.26.15-2.8.42-4.82.49-13.33.47-14.35-.02-22.73-.85-26.74-2.62-1.87-.83-2.42-1.33-2.42-2.2 0-1 .65-1.77 1.77-2.15.83-.27.9-.35.47-.5-.29-.11-1.27-.13-2.1-.38-3.9-1.14-5.96-3.6-4.7-5.76 1-1.72 3.77-2.56 5.74-2.99 2.15-.47 4.35-.64 4.84-.64.75 0 .87-.07.71-.46-.1-.25-.35-1.5-.54-2.76-.74-4.8.3-8.76 3.07-11.7a11.98 11.98 0 0 1 6.44-3.43c.8-.1 1.45-.22 1.45-.26 0-.05-.6-1.37-1.34-2.94-2.46-5.26-4.68-12.77-5.27-17.87a68.3 68.3 0 0 1 .15-12.93 87.18 87.18 0 0 1 3.45-14.08 112.36 112.36 0 0 1 6.83-14.38c.88-1.45 1.9-3.13 2.25-3.73.57-.95 1.3-2.02 3.96-5.81.22-.31 1.28-1.68 2.37-3.04a120.04 120.04 0 0 1 14.39-15.73c1.87-1.77 7.31-6.16 9.9-7.98 6.48-4.55 11.35-7.1 17.28-9.03a94.09 94.09 0 0 0 4.32-1.48c.05-.05-.09-.9-.31-1.88a23.2 23.2 0 0 0-2.19-5.06c-1.63-3-1.78-3.42-1.88-5.15-.09-1.57-.01-2.02.45-2.75 1.2-1.9 5.76-3.03 8.32-2.05 1.14.44 2.77 2.02 2.77 2.7 0 .6 1.6 1.64 2.97 1.92 2.17.45 3.77 0 8.51-2.36 4.9-2.46 7.78-3.3 12.67-3.74 8.1-.72 16.13.79 23.13 4.34 7.9 4.01 12.9 8.44 16.91 14.97 5.66 9.2 9.7 13.84 14.22 16.33.78.43 1.53.96 1.66 1.16 1.2 1.91-5.33 3.65-15.24 4.05-2.42.1-4.4.25-4.38.34 0 .09.67.69 1.47 1.34 4.4 3.58 13.23 14.07 18.1 21.51 6.94 10.6 11.24 19.8 13.7 29.33 2.9 11.3 3.05 21.27.43 30.97a44.66 44.66 0 0 1-7.82 15.53l-2.07 2.59c-.84 1.08-.84 1.08.27 1.22 3.7.49 11.67 1.13 10.64 5.23-.58 2.3-6.75 4.89-10.75 6.28-3.4 1.2-7.51 2.87-14.88 3.06-5.89.15-6.58.22-9.82.99-3.48.83-3.48.83-3.33 1.56.4 2-2.7 4.3-7.41 5.5-3.77.96-11.84 1.92-18.76 2.24l-5.57.26a23.7 23.7 0 0 0-4.36.68c-2.55.73-8.02.93-10.6.4zm8.1-3.17c3.34-.87 6.43-2.4 10.32-5.1 4.2-2.93 5.85-3.82 8.8-4.77 2.38-.77 3.23-.93 9.4-1.75 22.52-2.98 37.79-14.09 42.99-31.27 2.56-8.46 2.2-22.21-.86-31.93a86.34 86.34 0 0 0-6.12-15.04 117.54 117.54 0 0 0-22.26-30.44c-5.13-5.03-4.8-4.83-8.2-5.05a74.2 74.2 0 0 1-12.4-2.23 64.66 64.66 0 0 1-9.8-3.85c-6.89-3.38-12.16-7.43-16.6-12.74-2.02-2.43-2.02-2.43-4.7-2.43-3.32 0-5.63.26-5.14.57.19.12.7.22 1.14.22.9 0 1.56.8 1.32 1.58-.47 1.47-5.45 3.36-9.52 3.62-2.58.17-3.77-.17-4.34-1.25-.31-.57-.21-.85.62-1.77.53-.6.53-.6-.37-.44-3.75.68-10.29 3.69-15.3 7.04-13.96 9.36-28.6 25.76-36.06 40.44-2.4 4.7-5.4 12.09-6.03 14.75a26.1 26.1 0 0 1-.67 2.45c-.5 1.32-1.3 7.3-1.47 11.04-.4 8.75 2.02 18.42 6.8 27.24 1.47 2.69 1.85 3.18 3.66 4.67 1.1.92 2.59 2.34 3.29 3.16a6.9 6.9 0 0 0 1.37 1.4c.05-.06-.32-.8-.83-1.65-2.28-3.8-3.93-10.33-3.03-12.01.6-1.13 1.84-.32 1.84 1.2 0 1.12 1.52 4.73 2.88 6.8a37.58 37.58 0 0 0 8.3 9c3.99 3 9.77 4.67 12.96 3.74 2.13-.62 2.78-1.34 2.77-3.1-.01-2.76-1.17-4.32-6.37-8.57-3.82-3.11-5.67-5.05-7.71-8.1-1.73-2.57-2.13-3.42-1.92-4 .35-.9 1.33-.29 2.76 1.73 2.37 3.32 4.17 5.17 8.06 8.27 5.65 4.51 7.47 6.84 7.75 9.91.25 2.72-.88 4.69-3.46 6.04-1.24.64-1.6.7-4.58.7a54.4 54.4 0 0 0-3.23.06c0 .16 4.13 2.37 5.65 3.03 7.08 3.05 17.52 5.5 25.52 5.97 3.33.2 3.33.2 3.47-2.71.26-5.2 2.31-9.97 5.63-13.09 1.18-1.1 4.5-2.88 5.4-2.88.2 0 1.03-.31 1.83-.69 2.84-1.34 5-1.77 10.95-2.2 3.94-.27 7.67-1.23 9.66-2.46 3.45-2.13 4.37-2.93 7.15-6.22.75-.9 1.08-1.1 1.51-.97 1.08.34.65 1.4-1.68 4.18a27.97 27.97 0 0 1-6.77 5.2 24.3 24.3 0 0 1-7.83 2.34l-4.88.59c-1.34.16-2.53.34-2.64.41-.11.07.84.63 2.1 1.25a12.44 12.44 0 0 1 5.39 4.62c.87 1.27.94 1.32 2.74 1.62 1.12.2 2.87.26 4.44.16 5.81-.35 12.95-3.97 16.28-8.25a85.2 85.2 0 0 1 1.74-2.16c1-1.2 1.87-2.83 2.6-4.94.47-1.33.66-1.58 1.18-1.58 1.07 0 1.21.63.72 3.14-1.1 5.6-4.94 10.94-10.54 14.7a16.29 16.29 0 0 1-2.65 1.56c-.17 0-.03.15.32.33.81.41 1.21 1.06 1 1.6-.2.56-1.11.56-3.18 0-1.22-.32-2.94-.43-6.93-.45-5.31-.04-5.31-.04-5.08.58.45 1.2.27 5.42-.32 7.34-.97 3.14-2.31 4.88-2.8 3.62-.09-.23.05-1.33.31-2.43.94-3.97.42-8.77-1.33-12.2a13.2 13.2 0 0 0-5.26-5.12 8.91 8.91 0 0 0-3.97-.87c-5.13-.27-8 1.54-10.55 6.67-2.08 4.19-2.29 11.13-.47 15.77 1.18 3 3.72 5.39 6.63 6.24 3.28.97 5.33 1 8.6.16zm62.79-42.86a1.6 1.6 0 0 1-.7-1.4c0-1.11.7-1.75 1.92-1.75 1.7 0 2.36 1.82 1.13 3.05-.8.8-1.44.82-2.35.1zm3.19-18.17c-1.49-1.24-.94-3.6.91-3.95 1.71-.32 3.02.71 3.02 2.39 0 .98-.27 1.45-1.07 1.86-1.1.57-1.95.48-2.86-.3zm-.78 10.3a2.1 2.1 0 0 1-.65-1.56c0-1.28.22-1.71 1.08-2.16 1.06-.55 1.67-.48 2.6.3.67.57.8.87.8 1.83 0 .92-.13 1.25-.69 1.69-.96.76-2.32.72-3.14-.1zm-73.28-16.42c-2.4-1.96-6.7-3.09-10.15-2.64-2.45.32-3.24.58-5.5 1.82-2.1 1.15-3.01 1.31-3.67.65-.8-.8-.5-1.53 1.3-3.1a14 14 0 0 1 10.82-3.52c3.25.25 5.55 1.19 8.64 3.54 1.91 1.45 2.47 2.43 1.99 3.44-.55 1.16-1.88 1.09-3.43-.19zm20.11-.21c-.94-.26-2-.67-2.35-.92-2.65-1.86-4.55-5-5.05-8.3-.54-3.58.53-7.99 2.38-9.84 1.42-1.42 2.06-1.5 4.01-.51a19.7 19.7 0 0 0 4.13 1.32c3.96.8 6.63 2.62 8.1 5.52.6 1.18.7 1.72.7 3.61 0 1.91-.12 2.46-.8 3.92-1.1 2.34-2.88 4.18-4.73 4.87-2.08.78-4.3.9-6.39.33zm.49-12.1c.87-.61 1.17-1.59.82-2.66-.57-1.7-2.6-2.08-3.69-.68-.95 1.21-.44 2.88 1.06 3.47.93.36 1.12.35 1.8-.13zm-60.07 8.46a8.35 8.35 0 0 1-4.2-2.34c-2.46-2.21-3.28-5.6-2.21-9.13 1.09-3.59 3.95-5.74 8.52-6.42a10.3 10.3 0 0 0 4.01-1.22c1.35-.77 1.56-.82 2.4-.54 2.59.85 4.3 5.88 3.59 10.49-.75 4.8-3.5 8.06-7.78 9.2a6.93 6.93 0 0 1-4.33-.04zm6.8-11.73c.66-.35 1.1-1.71.8-2.5a2.46 2.46 0 0 0-2.06-1.46c-.35 0-.99.36-1.43.8-.67.67-.77.94-.64 1.65a2.26 2.26 0 0 0 3.32 1.51zm102.2 11.2c-.85-.84-.92-1.03-.78-2.04.35-2.6 3.44-3.47 4.93-1.4 1.43 1.97.12 4.37-2.39 4.37-.6 0-1.09-.26-1.76-.93zm-4.44-11.32a2.53 2.53 0 0 1-.48-2.64c.2-.53 1.45-1.2 2.22-1.2.83 0 2.1 1.39 2.1 2.29-.03 1.9-2.48 2.9-3.84 1.55zm-40.28-7.83a15.87 15.87 0 0 1-8.75-3.48c-2.04-1.62-3.1-3.04-3.13-4.18-.04-1.44 1.5-1.76 2.66-.54 3.13 3.31 7.79 5.65 12 6.02 2.2.2 2.81.45 2.81 1.15 0 .28-.2.62-.46.75-.7.36-3.16.5-5.13.28zm36.07-2.59c-2.15-.92-1.99-4.23.23-4.65 1-.19 2.37.37 2.64 1.08.32.83.17 2.44-.3 3-.52.62-1.78.91-2.57.57zm-103.33-.78c-1.8-.6-2.23-1.18-1.41-2 .3-.3.95-.4 2.47-.4 2.39 0 5.5-.72 7.58-1.73.8-.4 2.38-1.59 3.53-2.66 2.14-2 2.79-2.28 3.56-1.51.65.66.3 1.8-1.05 3.38-2.58 3.02-6.82 4.9-11.36 5.05-1.45.05-2.95-.01-3.32-.13zm95.42-9.3c-1.98-1.09-1.34-3.92.9-3.98 2.17-.07 2.98 2.9 1.06 3.89-.88.45-1.25.47-1.96.08zm-116.71 96.34c1.9-.37 4.58-1.84 7.03-3.85 5.11-4.2 7.57-5.51 11-5.85 1.78-.18 1.78-.18-.39-1.86a84.97 84.97 0 0 1-4.1-3.43 29.92 29.92 0 0 0-3.45-2.68 29.5 29.5 0 0 1-3.56-2.83c-1.13-1.06-2.22-1.92-2.42-1.91-1 0-1.02.39-.21 2.78 1.26 3.72 1.51 8.53.47 9.18-.66.42-1.27-.24-1.27-1.38 0-.52-.23-1.9-.51-3.07-1.5-6.18-4.87-11.01-9.13-13.08-1.66-.8-2.07-.89-4.08-.88-1.84 0-2.51.13-3.7.67a8.1 8.1 0 0 0-4.9 5.67c-.8 2.73-.13 7.33 1.6 11.1 1.99 4.36 5.96 8.79 9.4 10.48 2.8 1.38 4.78 1.6 8.22.94zm120.8-126.19a47 47 0 0 1-3.6-2.43c-2.18-1.62-8.07-6.84-8.23-7.3-.14-.36 1.97-.28 3.78.14.87.2 1.62.34 1.67.29.18-.2-4.82-1.45-5.78-1.45-.43 0-1.8-.85-3.83-2.34a72.4 72.4 0 0 0-5.06-3.44c-1.05-.61-1.91-1.23-1.91-1.37 0-.34 6.54-.32 8.67.03.93.15 1.74.22 1.8.15.08-.07-.86-.45-2.07-.84-1.97-.64-2.67-.73-6.69-.81-4.48-.1-4.48-.1-6.6-1.12a51.93 51.93 0 0 0-4.35-1.83c-1.23-.44-2.71-1-3.29-1.24-1.05-.45-1.05-.45-.4-.79 1.3-.67 6.18-1.66 10.16-2.05.43-.05-.24-.18-1.5-.3-2.89-.27-6 .13-9.09 1.17-2.33.8-2.34.8-4.32.4-1.09-.2-2.87-.51-3.95-.67a13.11 13.11 0 0 1-2.08-.4c-.44-.44 4.5-3.13 6.73-3.67 1.1-.27 1.31-.38.75-.39-2.05-.05-6.8 1.69-8.63 3.15-.95.77-1.04.78-4.09.78-3.04 0-4.35.16-7.6.88-1.59.35-1.59.35 1.98.38 1.95.02 4.33.17 5.28.34 1.72.31 1.72.31 2.46 1.8.4.81.96 2.43 1.23 3.6.42 1.85.48 1.97.5 1 .02-.98-.42-3.52-.93-5.33-.16-.57-.11-.62.45-.49 6.28 1.44 7.9 1.86 8.24 2.13.28.2.55 1.36.84 3.48.46 3.31 1.43 7 2.27 8.57.58 1.1 1.78 2.62 1.32 1.68-.97-1.99-1.64-4.96-2-8.79-.2-2.25-.27-4.2-.16-4.32.25-.25 5.62 1.71 9.02 3.3 2.34 1.08 2.34 1.08 2.74 2.56.22.82.58 2.02.8 2.67.22.65.4 1.34.4 1.52 0 .7 3.23 6.66 3.6 6.66.06 0-.2-.6-.57-1.32-.36-.72-.84-2.12-1.06-3.1-.22-.98-.56-2.37-.77-3.1-.53-1.88-.73-3.56-.43-3.56.57 0 6.3 3.66 9.23 5.9.96.73 2.75 2.18 3.98 3.22a45.34 45.34 0 0 0 9.37 6.22c3.01 1.46 3.86 1.67 1.72.43zM426.06 296c.18-.4.39-1.43.47-2.31.18-2.04-.66-5.1-2.54-9.12a22.9 22.9 0 0 1-1.49-3.93c-.17-1.1-.17-1.1.63-.94 1.05.21 3.37-.56 3.88-1.3.97-1.37.2-2.29-1.93-2.28-1.99 0-3.54.72-4 1.82-.47 1.15.13 3.28 1.84 6.46 1.58 2.95 2.27 4.79 2.63 7.02.37 2.35.34 3.7-.1 4.55-.3.57-.31.73-.05.73.19 0 .48-.32.66-.7zm12.08-6.43c1.16 0 1.67-.1 1.67-.33 0-.74-1.6-3.62-2.46-4.45-.92-.87-.99-.9-3.26-.9-1.62 0-2.58-.12-3.15-.42-.82-.42-.82-.42-.75.8.07 1.18.95 4.72 1.33 5.33.13.22.9.26 2.56.14 1.31-.1 3.14-.17 4.06-.17z" fill="currentColor" transform="translate(-342.78 -272.72)"/>
</svg>
