<svg xmlns="http://www.w3.org/2000/svg" xml:space="preserve" viewBox="0 0 20 20">
  <path fill="none" d="M0 0h20v20H0V0z"/>
  <path fill="currentColor" d="M17.7 11c0-.3.1-.6.1-1s0-.7-.1-1l2.2-1.7c.2-.1.2-.4.1-.6l-2.1-3.5c-.1-.2-.4-.3-.6-.2l-2.6 1c-.5-.4-1.1-.7-1.7-1L12.6.3c0-.3-.3-.4-.5-.4H7.9c-.2.1-.4.3-.5.5l-.3 2.7c-.7.2-1.3.6-1.8.9L2.8 3c-.3 0-.5 0-.7.3l-2 3.4c-.2.3-.1.5.1.7L2.4 9c-.1.3-.1.7-.1 1s0 .7.1 1L.2 12.7c-.2.1-.2.4-.1.6l2.1 3.5c0 .2.3.2.5.2l2.6-1c.5.4 1.1.7 1.7 1l.4 2.6c.1.2.3.4.5.4H12c.3 0 .5-.2.5-.4l.4-2.7c.6-.2 1.2-.6 1.7-1l2.6 1c.2.1.5 0 .6-.2l2.1-3.5c.1-.2.1-.5-.1-.6L17.7 11zM10 13.8c-2.1 0-3.9-1.7-3.9-3.8S7.9 6.2 10 6.2s3.9 1.7 3.9 3.8-1.8 3.8-3.9 3.8z"/>
</svg>